<?xml version="1.0" standalone="no"?>
<!DOCTYPE svg PUBLIC "-//W3C//DTD SVG 20010904//EN"
 "http://www.w3.org/TR/2001/REC-SVG-20010904/DTD/svg10.dtd">
<svg version="1.0" xmlns="http://www.w3.org/2000/svg"
 width="300.000000pt" height="300.000000pt" viewBox="0 0 300.000000 300.000000"
 preserveAspectRatio="xMidYMid meet">
<metadata>
Created by potrace 1.11, written by Peter Selinger 2001-2013
</metadata>
<g transform="translate(0.000000,300.000000) scale(0.100000,-0.100000)"
fill="#000000" stroke="none">
<path d="M2080 2881 c-89 -18 -175 -86 -214 -170 -20 -45 -21 -58 -24 -557 -3
-506 -3 -511 18 -537 28 -36 87 -38 118 -4 22 23 22 24 22 513 0 456 2 492 19
530 15 34 28 45 65 59 87 33 172 6 208 -66 16 -31 18 -77 18 -526 0 -480 1
-494 20 -513 26 -26 80 -26 111 -1 l24 19 5 515 5 515 24 26 c45 47 128 58
199 26 73 -33 72 -23 72 -578 0 -480 0 -490 21 -516 28 -35 86 -36 118 -2 l22
23 -3 519 c-3 517 -3 519 -26 561 -35 66 -79 110 -139 140 -106 51 -274 33
-350 -39 l-23 -21 -44 31 c-71 51 -174 71 -266 53z"/>
<path d="M572 2854 c-32 -22 -43 -57 -31 -94 15 -42 35 -50 133 -50 l86 0 0
-430 c0 -479 -1 -491 -65 -530 -62 -39 -177 -21 -207 33 -9 14 -15 80 -18 188
-4 146 -7 170 -24 188 -29 32 -88 29 -115 -5 -19 -24 -21 -40 -21 -168 0 -164
15 -238 61 -300 61 -84 148 -121 265 -114 113 7 192 60 250 168 18 33 19 68
22 558 l3 522 -25 25 c-24 24 -30 25 -158 25 -106 0 -138 -3 -156 -16z"/>
<path d="M247 952 l-247 -439 0 -256 0 -257 1500 0 1500 0 0 302 0 302 -221
394 -221 393 -17 -28 c-9 -15 -79 -139 -156 -275 -76 -137 -141 -248 -144
-248 -3 1 -78 124 -166 275 l-160 274 -415 0 -415 0 -120 -205 c-66 -113 -134
-228 -151 -255 l-31 -51 -133 239 c-74 131 -139 246 -145 256 -10 15 -48 -46
-258 -421z"/>
</g>
</svg>
